<?xml version="1.0" encoding="UTF-8" standalone="no"?>
<!-- Created with Inkscape (http://www.inkscape.org/) -->

<svg
   width="16"
   height="16"
   viewBox="0 0 16 16"
   version="1.1"
   id="svg1"
   inkscape:version="1.4 (86a8ad7, 2024-10-11)"
   sodipodi:docname="environment_query.svg"
   xmlns:inkscape="http://www.inkscape.org/namespaces/inkscape"
   xmlns:sodipodi="http://sodipodi.sourceforge.net/DTD/sodipodi-0.dtd"
   xmlns="http://www.w3.org/2000/svg"
   xmlns:svg="http://www.w3.org/2000/svg">
  <sodipodi:namedview
     id="namedview1"
     pagecolor="#ffffff"
     bordercolor="#000000"
     borderopacity="0.25"
     inkscape:showpageshadow="2"
     inkscape:pageopacity="0.0"
     inkscape:pagecheckerboard="0"
     inkscape:deskcolor="#d1d1d1"
     inkscape:document-units="px"
     inkscape:zoom="21.414741"
     inkscape:cx="-4.1326673"
     inkscape:cy="9.269316"
     inkscape:window-width="1920"
     inkscape:window-height="1009"
     inkscape:window-x="-8"
     inkscape:window-y="-8"
     inkscape:window-maximized="1"
     inkscape:current-layer="layer1" />
  <defs
     id="defs1" />
  <g
     inkscape:label="Layer 1"
     inkscape:groupmode="layer"
     id="layer1">
    <path
       fill="#e0e0e0"
       d="M 5.5831323,0.3672283 C 2.2332531,0.3672283 0,2.6004813 0,5.9503607 0,9.3002404 3.3498794,12.650119 5.5831323,16 V 8.741927 a 2.7915664,2.7915664 0 0 1 0,-5.5831327 z"
       id="path1"
       style="fill:#fc7f7f;fill-opacity:1;stroke-width:1.11662" />
    <path
       fill="#fc7f7f"
       d="m 5.5831323,0.3672283 v 2.791566 a 2.7915664,2.7915664 0 0 1 0,5.5831327 V 16 c 2.233253,-3.349881 5.5831337,-6.6997596 5.5831337,-10.0496393 0,-3.3498794 -2.2332527,-5.5831324 -5.5831337,-5.5831324 z"
       id="path2"
       style="fill:#8da5f3;fill-opacity:1;stroke-width:1.11662" />
    <text
       xml:space="preserve"
       style="font-size:6px;font-family:'0xProto Nerd Font Mono';-inkscape-font-specification:'0xProto Nerd Font Mono';text-align:start;writing-mode:lr-tb;direction:ltr;text-anchor:start;fill:#8da5f3;fill-opacity:1;stroke-width:74.8498;paint-order:stroke fill markers"
       x="12.468047"
       y="3.2921247"
       id="text7"><tspan
         sodipodi:role="line"
         id="tspan7" /></text>
    <path
       id="path1-1"
       d="M 11.232692,3.2522527 A 4.7815721,4.7815721 0 0 0 7.114191,5.6399258 1.5945125,1.5945125 0 0 0 9.875424,7.2337832 1.5938573,1.5938573 0 1 1 11.254483,9.6245687 1.5938573,1.5938573 0 0 0 9.660627,11.218426 v 1.59386 H 12.84834 V 12.529003 A 4.7815721,4.7815721 0 0 0 11.232692,3.2522527 Z M 9.660627,14.406143 V 16 h 3.187713 v -1.593857 z"
       style="fill:#e0e0e0;fill-opacity:1;stroke:none;stroke-width:1.594;stroke-dasharray:none;stroke-opacity:1" />
  </g>
</svg>
