<svg xmlns="http://www.w3.org/2000/svg" xml:space="preserve" width="16" height="16"><path fill="none" d="M7.535 1.016C3.896 1.256 1 4.302 1 8c0 3.854 3.146 7 7 7 3.694 0 6.738-2.89 6.984-6.523-.52.48-1.094.87-1.654 1.22q-.416.26-.832.496a4.98 4.98 0 0 1-2.826 2.524q.3-.606.517-1.217l-.105.066-2.4 1.506-.291-1.74c-.27-.487-.498-.972-.622-1.45q.194.012.38.032c-.093-.482-.213-1.002-.335-1.549l-.09-.008a22 22 0 0 0-.035-.564 27 27 0 0 1-.228-1.186c-.224-1.343-.363-2.842.31-4.34.204-.452.46-.873.762-1.251m-1.27 2.289Q5.65 4.44 5.33 5.595c-.238.865-.304 1.733-.281 2.602-.804-.139-1.524-.312-2.04-.511a4.98 4.98 0 0 1 3.257-4.381m-3.08 6.052c.623.182 1.313.307 2.034.4.2.99.552 1.973 1.066 2.944a4.98 4.98 0 0 1-3.1-3.344" style="baseline-shift:baseline;display:inline;overflow:visible;opacity:1;vector-effect:none;fill:#fc7f7f;stroke:none;stop-color:#000;stop-opacity:1"/><path d="M-1.39 6.15c-1.845-.831-3.63-.154-4.46 1.692s.184 4.522.584 6.922c2.061-1.292 4.738-2.307 5.568-4.153.831-1.846.155-3.63-1.691-4.461m-.692 1.538a1.687 1.687 0 0 1-1.384 3.077 1.687 1.687 0 0 1 1.384-3.077" style="stroke-width:.674751" transform="translate(14.347 -4.799)"/><g style="opacity:1"><path d="M-1.39 6.15c-1.845-.831-3.63-.154-4.46 1.692s.184 4.522.584 6.922c2.061-1.292 4.738-2.307 5.568-4.153.831-1.846.155-3.63-1.691-4.461m-.692 1.538a1.687 1.687 0 0 1-1.384 3.077 1.687 1.687 0 0 1 1.384-3.077" style="baseline-shift:baseline;display:inline;overflow:visible;vector-effect:none;fill:#fc7f7f;stop-color:#000;stop-opacity:1;fill-opacity:1" transform="translate(14.347 -4.799)"/></g></svg>